<?xml version="1.0" standalone="no"?>
<!DOCTYPE svg PUBLIC "-//W3C//DTD SVG 1.1//EN" "http://www.w3.org/Graphics/SVG/1.1/DTD/svg11.dtd" >
<svg xmlns="http://www.w3.org/2000/svg" xmlns:xlink="http://www.w3.org/1999/xlink" version="1.1">
<metadata>
Created by FontForge 20170731 at Wed Oct  6 21:40:55 2010
 By Aleksey,,,
Copyright (c) Mark Simonson, 2005. All rights reserved.
</metadata>
<defs>
<font id="ProximaNovaAExCn-Regular" horiz-adv-x="378" >
  <font-face 
    font-family="Proxima Nova Alt ExCn Rg"
    font-weight="400"
    font-stretch="normal"
    units-per-em="1000"
    panose-1="2 0 5 6 3 0 0 2 0 4"
    ascent="800"
    descent="-200"
    x-height="483"
    cap-height="667"
    bbox="-100 -199 811 872"
    underline-thickness="20"
    underline-position="-173"
    unicode-range="U+000D-FB02"
  />
<missing-glyph horiz-adv-x="477" 
d="M414 -90h-351v842h351v-842zM382 -60v782h-288v-782h288z" />
    <glyph glyph-name="fi" unicode="fi" horiz-adv-x="404" 
d="M139 0h-69v423h-47v60h47v80q0 53 26 83.5t69 30.5q31 0 52 -14l-17 -54q-7 7 -21 7q-18 0 -29 -14t-11 -39v-80h65v-60h-65v-423zM314 554q-19 0 -33 14t-14 33t14 33t33 14q20 0 34 -14t14 -33t-14 -33t-34 -14zM348 0h-68v483h68v-483z" />
    <glyph glyph-name="fl" unicode="fl" horiz-adv-x="432" 
d="M139 0h-69v423h-47v60h47v80q0 53 26 83.5t69 30.5q31 0 52 -14l-17 -54q-7 7 -21 7q-18 0 -29 -14t-11 -39v-80h65v-60h-65v-423zM365 -12q-44 0 -64.5 25.5t-20.5 78.5v575h68v-565q0 -28 7 -40.5t24 -12.5q20 0 32 17l22 -51q-27 -27 -68 -27z" />
    <glyph glyph-name=".notdef" horiz-adv-x="477" 
d="M414 -90h-351v842h351v-842zM382 -60v782h-288v-782h288z" />
    <glyph glyph-name=".null" horiz-adv-x="0" 
 />
    <glyph glyph-name="nonmarkingreturn" horiz-adv-x="333" 
 />
    <glyph glyph-name="NUL" horiz-adv-x="0" 
 />
    <glyph glyph-name="NUL" horiz-adv-x="0" 
 />
    <glyph glyph-name="CR" unicode="&#xd;" horiz-adv-x="0" 
 />
    <glyph glyph-name="space" unicode=" " horiz-adv-x="171" 
 />
    <glyph glyph-name="exclam" unicode="!" horiz-adv-x="227" 
d="M142 183h-57l-15 484h86zM113 -10q-21 0 -36.5 15.5t-15.5 36.5t15.5 36t36.5 15q22 0 37 -15t15 -36t-15 -36.5t-37 -15.5z" />
    <glyph glyph-name="quotedbl" unicode="&#x22;" horiz-adv-x="336" 
d="M115 416h-35q-25 204 -25 218q0 18 13 30.5t30 12.5t30 -12.5t13 -30.5zM256 416h-35q-26 204 -26 218q0 18 12.5 30.5t30.5 12.5t30.5 -12.5t12.5 -30.5z" />
    <glyph glyph-name="numbersign" unicode="#" horiz-adv-x="423" 
d="M225 0h-57l44 183h-71l-42 -183h-57l43 183h-68l11 49h69l47 203h-69l10 49h70l42 183h57l-42 -183h70l42 183h56l-42 -183h68l-10 -49h-70l-47 -203h71l-11 -49h-72zM222 232l48 203h-70l-47 -203h69z" />
    <glyph glyph-name="dollar" unicode="$" horiz-adv-x="343" 
d="M155 -100v88q-83 3 -135 61l38 60q37 -51 97 -53v254q-30 26 -43.5 39.5t-34.5 40.5t-30 57t-9 67q0 60 32 104t85 56v94h56v-91q58 -6 100 -46l-33 -58q-28 30 -67 36v-237q35 -31 54.5 -53.5t38 -64.5t18.5 -91q0 -62 -30 -107.5t-81 -60.5v-95h-56zM115 517
q0 -49 40 -92v174q-40 -25 -40 -82zM246 159q0 52 -35 95v-180q35 30 35 85z" />
    <glyph glyph-name="percent" unicode="%" horiz-adv-x="570" 
d="M150 348q-55 0 -88 46.5t-33 117.5q0 72 33 118.5t88 46.5t87.5 -46.5t32.5 -118.5q0 -71 -33 -117.5t-87 -46.5zM168 0h-40l273 667h42zM420 -12q-55 0 -87.5 46t-32.5 117q0 72 33 119t87 47q55 0 88 -47t33 -119q0 -71 -33 -117t-88 -46zM150 396q31 0 49.5 33
t18.5 83q0 51 -18.5 84.5t-49.5 33.5t-50 -33.5t-19 -84.5q0 -50 19 -83t50 -33zM420 35q32 0 50 33t18 83q0 52 -18 85t-50 33q-31 0 -49.5 -33t-18.5 -85q0 -50 18.5 -83t49.5 -33z" />
    <glyph glyph-name="ampersand" unicode="&#x26;" horiz-adv-x="399" 
d="M394 0h-77q-20 31 -35 59q-50 -71 -117 -71q-57 0 -92 47t-35 127q0 68 24 114.5t67 89.5q-35 93 -35 148q0 74 29 118.5t78 44.5q41 0 70 -37t29 -92q0 -42 -16 -79.5t-29.5 -54t-47.5 -51.5q-5 -6 -8 -9q18 -46 41 -91q27 -54 40 -77q17 53 34 138l58 -25
q-24 -108 -56 -177q31 -52 78 -122zM175 46q40 0 76 68q-36 63 -54 102q-24 46 -42 88q-47 -61 -47 -139q0 -56 19 -87.5t48 -31.5zM159 514q0 -43 18 -100q63 65 63 133q0 37 -11.5 56.5t-27.5 19.5q-42 0 -42 -109z" />
    <glyph glyph-name="quotesingle" unicode="'" horiz-adv-x="195" 
d="M115 416h-35q-25 204 -25 218q0 18 13 30.5t30 12.5t30 -12.5t13 -30.5z" />
    <glyph glyph-name="parenleft" unicode="(" horiz-adv-x="209" 
d="M190 -178l-48 -21q-95 208 -95 442t95 442l48 -20q-67 -208 -67 -422q0 -215 67 -421z" />
    <glyph glyph-name="parenright" unicode=")" horiz-adv-x="209" 
d="M66 -199l-47 21q67 206 67 421q0 214 -67 422l47 20q96 -207 96 -442t-96 -442z" />
    <glyph glyph-name="asterisk" unicode="*" horiz-adv-x="303" 
d="M173 392h-43l6 116l-97 -63l-22 37l103 53l-103 52l22 37l97 -62l-6 115h43l-6 -115l97 62l22 -37l-103 -52l103 -53l-22 -37l-97 63z" />
    <glyph glyph-name="plus" unicode="+" 
d="M349 313h-133v-155h-54v155h-133v49h133v148h54v-148h133v-49z" />
    <glyph glyph-name="comma" unicode="," horiz-adv-x="228" 
d="M170 21q0 -43 -22 -82.5t-56 -63.5l-35 28q24 17 42 43t20 50l-5 -1q-4 -1 -6 -1q-20 0 -33 14t-13 35t14.5 35.5t35.5 14.5q24 0 41 -19.5t17 -52.5z" />
    <glyph glyph-name="hyphen" unicode="-" horiz-adv-x="235" 
d="M205 212h-175v60h175v-60z" />
    <glyph glyph-name="period" unicode="." horiz-adv-x="227" 
d="M113 -10q-21 0 -36 15.5t-15 36.5t15 36t36 15q22 0 37 -15t15 -36t-15 -36.5t-37 -15.5z" />
    <glyph glyph-name="slash" unicode="/" horiz-adv-x="200" 
d="M53 -20h-53l147 707h53z" />
    <glyph glyph-name="zero" unicode="0" horiz-adv-x="412" 
d="M207 -12q-46 0 -80 31t-51.5 83.5t-25 109.5t-7.5 121q0 65 7.5 121.5t25 109t51.5 83t80 30.5t79.5 -30.5t51 -83t25 -109t7.5 -121.5q0 -64 -7.5 -121t-25 -109.5t-51 -83.5t-79.5 -31zM207 56q28 0 46 23.5t26 68.5t10.5 86t2.5 99q0 46 -1.5 79.5t-6.5 73t-13.5 64.5
t-25 42t-38.5 17q-28 0 -46 -23.5t-26.5 -67.5t-11 -85.5t-2.5 -99.5q0 -59 2.5 -99.5t10.5 -85.5t26.5 -68.5t46.5 -23.5z" />
    <glyph glyph-name="one" unicode="1" horiz-adv-x="292" 
d="M229 0h-75v567l-100 -106l-45 47l153 159h67v-667z" />
    <glyph glyph-name="two" unicode="2" horiz-adv-x="391" 
d="M347 0h-296v63q143 229 180 305.5t37 139.5q0 44 -21 72.5t-55 28.5q-64 0 -100 -83l-54 42q30 55 66 82t91 27q69 0 110 -46.5t41 -121.5q0 -67 -38 -152t-161 -290h200v-67z" />
    <glyph glyph-name="three" unicode="3" horiz-adv-x="390" 
d="M187 -12q-54 0 -95 31.5t-63 80.5l56 41q37 -85 100 -85q86 0 86 129q0 67 -27 95.5t-63 28.5q-29 0 -37 -1v69q8 -1 35 -1q39 0 62 29.5t23 84.5q0 119 -79 119q-61 0 -94 -78l-55 38q23 52 63.5 80t88.5 28q70 0 111 -44t41 -133q0 -54 -25.5 -98t-68.5 -57
q43 -10 72 -56t29 -109q0 -87 -41 -139.5t-119 -52.5z" />
    <glyph glyph-name="four" unicode="4" horiz-adv-x="366" 
d="M299 0h-75v173h-210v69l195 425h90v-427h53v-67h-53v-173zM224 240v332l-146 -332h146z" />
    <glyph glyph-name="five" unicode="5" horiz-adv-x="393" 
d="M194 -12q-58 0 -94 28.5t-62 83.5l55 40q33 -84 98 -84q39 0 62 44t23 104q0 149 -77 149q-27 0 -46.5 -14t-40.5 -49l-58 20v357h273v-67h-197v-236q32 56 91 56q61 0 97 -56t36 -159q0 -91 -43.5 -154t-116.5 -63z" />
    <glyph glyph-name="six" unicode="6" horiz-adv-x="392" 
d="M207 -12q-164 0 -164 345q0 70 9.5 129t29.5 108.5t55.5 78t84.5 28.5q41 0 74.5 -23t51.5 -63l-45 -50q-27 68 -79 68q-30 0 -51 -24.5t-32 -66.5t-16 -86t-5 -94v-14q15 41 42 67t64 26q57 0 94 -55.5t37 -157.5q0 -90 -39 -153t-111 -63zM204 56q40 0 57.5 42
t17.5 104q0 149 -74 149q-54 0 -84 -104q3 -191 83 -191z" />
    <glyph glyph-name="seven" unicode="7" horiz-adv-x="330" 
d="M156 0h-80l151 600h-206v67h288v-52z" />
    <glyph glyph-name="eight" unicode="8" horiz-adv-x="391" 
d="M195 -12q-75 0 -115.5 45.5t-40.5 126.5q0 60 32.5 111t72.5 73q-38 20 -68 64.5t-30 102.5q0 80 42.5 123t106.5 43q65 0 107.5 -43t42.5 -123q0 -57 -30 -101.5t-68 -65.5q40 -22 72.5 -73t32.5 -110q0 -81 -40.5 -127t-116.5 -46zM195 371q6 3 16.5 11.5t24 23.5
t23 40t9.5 54q0 109 -73 109q-35 0 -54 -29t-19 -80q0 -37 17 -68.5t31.5 -43.5t24.5 -17zM195 56q36 0 58 29.5t22 84.5q0 40 -17.5 75.5t-35 51.5t-27.5 18q-7 -1 -19 -11.5t-26 -28t-24 -46.5t-10 -60q0 -54 21.5 -83.5t57.5 -29.5z" />
    <glyph glyph-name="nine" unicode="9" horiz-adv-x="392" 
d="M170 -11q-41 0 -74.5 23t-51.5 63l46 50q25 -68 79 -68q38 0 62 43.5t32.5 100.5t8.5 126v15q-14 -41 -41 -67t-64 -26q-58 0 -95 55t-37 158q0 90 39 153t111 63q165 0 165 -345q0 -70 -9.5 -129t-29.5 -108.5t-56 -78t-85 -28.5zM187 315q54 0 84 104q-3 191 -82 191
q-40 0 -58 -41.5t-18 -104.5q0 -149 74 -149z" />
    <glyph glyph-name="colon" unicode=":" horiz-adv-x="226" 
d="M113 387q-21 0 -36 15.5t-15 35.5q0 21 15 36.5t36 15.5q22 0 37 -15.5t15 -36.5q0 -20 -15.5 -35.5t-36.5 -15.5zM113 -10q-21 0 -36 15.5t-15 36.5t15 36t36 15q22 0 37 -15t15 -36t-15 -36.5t-37 -15.5z" />
    <glyph glyph-name="semicolon" unicode=";" horiz-adv-x="227" 
d="M113 387q-21 0 -36 15.5t-15 35.5q0 22 15 37t36 15q22 0 37 -15t15 -37q0 -20 -15.5 -35.5t-36.5 -15.5zM170 22q0 -43 -22 -82.5t-56 -63.5l-35 29q24 16 42 42.5t20 50.5q-2 -2 -11 -2q-20 0 -33 13.5t-13 34.5t14.5 36t35.5 15q24 0 41 -20t17 -53z" />
    <glyph glyph-name="less" unicode="&#x3c;" 
d="M349 161l-320 149v49l320 149v-59l-259 -115l259 -114v-59z" />
    <glyph glyph-name="equal" unicode="=" 
d="M349 407h-320v49h320v-49zM349 212h-320v49h320v-49z" />
    <glyph glyph-name="greater" unicode="&#x3e;" 
d="M349 310l-320 -149v59l259 114l-259 115v59l320 -149v-49z" />
    <glyph glyph-name="question" unicode="?" horiz-adv-x="313" 
d="M134 183q-26 35 -26 84q0 40 16.5 75t36.5 57t36.5 55.5t16.5 70.5q0 33 -21 60t-54 27q-36 0 -67 -34l-34 50q46 50 115 50q59 0 97.5 -41t38.5 -100q0 -37 -12 -69t-29 -55.5t-34 -46t-29 -48.5t-12 -54q0 -30 20 -54zM160 -10q-22 0 -37 15.5t-15 36.5t15 36t37 15
q21 0 36 -15t15 -36t-15 -36.5t-36 -15.5z" />
    <glyph glyph-name="at" unicode="@" horiz-adv-x="599" 
d="M263 -70q-104 0 -166 77t-62 208q0 107 45 205t121.5 158.5t163.5 60.5q90 0 144.5 -65t54.5 -180q0 -128 -45.5 -218.5t-102.5 -90.5q-32 0 -52 19.5t-22 50.5l-1 7q-47 -77 -108 -77q-38 0 -64.5 29t-26.5 94q0 69 22 135t65 111t96 45q56 0 72 -72l11 56h63l-59 -278
q-3 -15 -3 -23q0 -26 7 -36.5t23 -10.5q12 0 27 17.5t29.5 48.5t24.5 82.5t10 110.5q0 101 -45.5 156t-120.5 55q-77 0 -145.5 -57t-108 -147t-39.5 -185q0 -116 53 -184.5t143 -68.5q71 0 137 56l17 -26q-76 -63 -158 -63zM257 137q20 0 39.5 14t29 27.5t25.5 38.5l35 162
q-13 69 -54 69q-54 0 -88.5 -76.5t-34.5 -155.5t48 -79z" />
    <glyph glyph-name="A" unicode="A" horiz-adv-x="364" 
d="M357 0h-78l-26 153h-143l-26 -153h-77l131 667h87zM244 220l-62 357l-62 -357h124z" />
    <glyph glyph-name="B" unicode="B" horiz-adv-x="403" 
d="M213 0h-150v667h144q69 0 106.5 -46t37.5 -124q0 -122 -87 -153q42 -7 69 -54.5t27 -109.5q0 -84 -36.5 -132t-110.5 -48zM192 375q81 0 81 112q0 113 -81 113h-54v-225h54zM196 67q86 0 86 121q0 52 -21.5 86t-64.5 34h-58v-241h58z" />
    <glyph glyph-name="C" unicode="C" horiz-adv-x="390" 
d="M217 -12q-89 0 -131.5 94.5t-42.5 250.5t42.5 250.5t131.5 94.5q99 0 138 -128l-62 -24q-13 43 -29.5 63.5t-46.5 20.5q-96 0 -96 -277t96 -277q33 0 50.5 26.5t27.5 74.5l63 -23q-34 -146 -141 -146z" />
    <glyph glyph-name="D" unicode="D" horiz-adv-x="427" 
d="M190 0h-127v667h126q100 0 148 -90.5t48 -243.5q0 -154 -47.5 -243.5t-147.5 -89.5zM190 67q116 0 116 266q0 267 -116 267h-52v-533h52z" />
    <glyph glyph-name="E" unicode="E" horiz-adv-x="352" 
d="M311 0h-248v667h248v-67h-173v-225h166v-67h-166v-241h173v-67z" />
    <glyph glyph-name="F" unicode="F" horiz-adv-x="351" 
d="M138 0h-75v667h248v-67h-173v-225h166v-67h-166v-308z" />
    <glyph glyph-name="G" unicode="G" horiz-adv-x="411" 
d="M215 -12q-86 0 -129 92.5t-43 252.5t43 252.5t131 92.5q103 0 138 -128l-62 -24q-13 42 -29.5 63t-46.5 21q-96 0 -96 -277t96 -277q45 0 65.5 61t20.5 155h-103v68h177q0 -177 -37 -264.5t-125 -87.5z" />
    <glyph glyph-name="H" unicode="H" horiz-adv-x="436" 
d="M373 0h-75v309h-160v-309h-75v667h75v-290h160v290h75v-667z" />
    <glyph glyph-name="I" unicode="I" horiz-adv-x="201" 
d="M138 0h-75v667h75v-667z" />
    <glyph glyph-name="J" unicode="J" horiz-adv-x="321" 
d="M113 -12q-64 0 -106 46l29 60q27 -38 70 -38q78 0 78 89v522h75v-525q0 -78 -39 -116t-107 -38z" />
    <glyph glyph-name="K" unicode="K" horiz-adv-x="418" 
d="M407 0h-87l-137 289l-45 -86v-203h-75v667h75v-347l171 347h85l-169 -317z" />
    <glyph glyph-name="L" unicode="L" horiz-adv-x="333" 
d="M311 0h-248v667h75v-600h173v-67z" />
    <glyph glyph-name="M" unicode="M" horiz-adv-x="558" 
d="M495 0h-74v523l-127 -523h-30l-126 523v-523h-75v667h102l114 -470l116 470h100v-667z" />
    <glyph glyph-name="N" unicode="N" horiz-adv-x="436" 
d="M373 0h-72l-163 486v-486h-75v667h75l160 -476v476h75v-667z" />
    <glyph glyph-name="O" unicode="O" horiz-adv-x="434" 
d="M217 -12q-61 0 -101 48t-56.5 122.5t-16.5 174.5t16.5 174.5t56.5 122.5t101 48t101 -48t56.5 -122.5t16.5 -174.5t-16.5 -174.5t-56.5 -122.5t-101 -48zM217 56q50 0 73 77t23 200q0 124 -23 200.5t-73 76.5q-96 0 -96 -277t96 -277z" />
    <glyph glyph-name="P" unicode="P" horiz-adv-x="387" 
d="M138 0h-75v667h137q78 0 118.5 -56.5t40.5 -142.5t-40.5 -142.5t-118.5 -56.5h-62v-269zM193 336q43 0 65.5 36t22.5 96t-22.5 96t-65.5 36h-55v-264h55z" />
    <glyph glyph-name="Q" unicode="Q" horiz-adv-x="434" 
d="M217 -12q-61 0 -101 48t-56.5 122.5t-16.5 174.5t16.5 174.5t56.5 122.5t101 48t101 -48t56.5 -122.5t16.5 -174.5q0 -216 -75 -301l17 -45l-56 -22l-12 32q-23 -9 -48 -9zM217 56q14 0 23 5l-57 148l57 22l44 -115q29 70 29 217q0 124 -23 200.5t-73 76.5
q-96 0 -96 -277t96 -277z" />
    <glyph glyph-name="R" unicode="R" horiz-adv-x="409" 
d="M365 0h-82l-86 269h-59v-269h-75v667h139q70 0 113.5 -53.5t43.5 -143.5q0 -80 -27.5 -125t-64.5 -60zM193 336q43 0 65.5 36t22.5 96t-22.5 96t-65.5 36h-55v-264h55z" />
    <glyph glyph-name="S" unicode="S" horiz-adv-x="354" 
d="M163 -12q-87 0 -143 61l38 60q39 -53 102 -53q37 0 61.5 28.5t24.5 74.5q0 42 -21.5 76t-52 60t-61 54t-52 70t-21.5 95q0 71 43 117.5t110 46.5q73 0 120 -47l-33 -58q-34 37 -85 37q-33 0 -55.5 -25.5t-22.5 -67.5q0 -36 21.5 -67.5t51.5 -57.5t60.5 -55.5t52 -74
t21.5 -99.5q0 -77 -44 -126t-115 -49z" />
    <glyph glyph-name="T" unicode="T" horiz-adv-x="323" 
d="M199 0h-76v600h-105v67h287v-67h-106v-600z" />
    <glyph glyph-name="U" unicode="U" horiz-adv-x="437" 
d="M218 -12q-70 0 -112.5 46t-42.5 138v495h75v-498q0 -114 80 -114q81 0 81 114v498h75v-495q0 -93 -42.5 -138.5t-113.5 -45.5z" />
    <glyph glyph-name="V" unicode="V" horiz-adv-x="364" 
d="M225 0h-87l-131 667h77l98 -567l97 567h78z" />
    <glyph glyph-name="W" unicode="W" horiz-adv-x="548" 
d="M424 0h-80l-70 515l-70 -515h-79l-107 667h78l71 -531l75 531h64l76 -531l70 531h78z" />
    <glyph glyph-name="X" unicode="X" horiz-adv-x="368" 
d="M365 0h-84l-97 269l-97 -269h-83l137 339l-130 328h84l89 -258l89 258h84l-130 -327z" />
    <glyph glyph-name="Y" unicode="Y" horiz-adv-x="372" 
d="M224 0h-76v283l-149 384h81l106 -307l107 307h80l-149 -384v-283z" />
    <glyph glyph-name="Z" unicode="Z" horiz-adv-x="340" 
d="M307 0h-274v66l184 534h-184v67h267v-63l-186 -537h193v-67z" />
    <glyph glyph-name="bracketleft" unicode="[" horiz-adv-x="182" 
d="M164 -190h-129v868h129v-51h-75v-766h75v-51z" />
    <glyph glyph-name="backslash" unicode="\" horiz-adv-x="200" 
d="M148 -20l-147 707h53l147 -707h-53z" />
    <glyph glyph-name="bracketright" unicode="]" horiz-adv-x="182" 
d="M147 -190h-130v51h76v766h-76v51h130v-868z" />
    <glyph glyph-name="asciicircum" unicode="^" horiz-adv-x="330" 
d="M311 333h-55l-91 275l-91 -275h-55l120 334h52z" />
    <glyph glyph-name="underscore" unicode="_" horiz-adv-x="279" 
d="M282 -91h-285v51h285v-51z" />
    <glyph glyph-name="grave" unicode="`" horiz-adv-x="146" 
d="M146 556h-46l-100 144h68z" />
    <glyph glyph-name="a" unicode="a" horiz-adv-x="384" 
d="M328 0h-68v65q-15 -36 -40.5 -56.5t-50.5 -20.5q-66 0 -98.5 68.5t-32.5 184.5q0 115 33 184.5t98 69.5q27 0 52 -20t39 -59v67h68v-483zM186 49q23 0 44.5 24t29.5 56v223q-8 33 -29.5 57.5t-44.5 24.5q-77 0 -77 -193q0 -192 77 -192z" />
    <glyph glyph-name="b" unicode="b" horiz-adv-x="384" 
d="M124 129q9 -33 30 -56.5t44 -23.5q77 0 77 192q0 193 -77 193q-23 0 -44 -24.5t-30 -57.5v-223zM124 0h-68v667h68v-251q14 39 39 59t52 20q66 0 99 -69.5t33 -184.5q0 -116 -33 -184.5t-99 -68.5q-25 0 -50.5 20.5t-40.5 56.5v-65z" />
    <glyph glyph-name="c" unicode="c" horiz-adv-x="317" 
d="M196 -12q-75 0 -116.5 71t-41.5 183t41.5 182.5t116.5 70.5q59 0 99 -44l-28 -52q-28 35 -62 35q-49 0 -72.5 -55t-23.5 -137t23.5 -137.5t72.5 -55.5q35 0 62 35l28 -52q-36 -44 -99 -44z" />
    <glyph glyph-name="d" unicode="d" horiz-adv-x="384" 
d="M328 0h-68v65q-15 -36 -40.5 -56.5t-50.5 -20.5q-66 0 -98.5 68.5t-32.5 184.5q0 115 33 184.5t98 69.5q27 0 52 -20t39 -59v251h68v-667zM186 49q23 0 44.5 24t29.5 56v224q-9 32 -30 56.5t-44 24.5q-77 0 -77 -193q0 -192 77 -192z" />
    <glyph glyph-name="e" unicode="e" horiz-adv-x="373" 
d="M205 -12q-82 0 -124.5 69.5t-42.5 184.5q0 112 38.5 182.5t114.5 70.5q77 0 113 -69.5t36 -182.5v-24h-234q1 -80 27.5 -127t76.5 -47q47 0 80 59l40 -37q-48 -79 -125 -79zM272 270q0 69 -19 118.5t-64 49.5q-31 0 -51 -29t-26 -64t-6 -75h166z" />
    <glyph glyph-name="f" unicode="f" horiz-adv-x="224" 
d="M139 0h-69v423h-47v60h47v80q0 53 26 83.5t69 30.5q31 0 52 -14l-17 -54q-7 7 -21 7q-18 0 -29 -14t-11 -39v-80h65v-60h-65v-423z" />
    <glyph glyph-name="g" unicode="g" horiz-adv-x="384" 
d="M178 -196q-79 0 -128 50l28 56q42 -45 94 -45q88 0 88 116v92q-15 -36 -40.5 -57.5t-50.5 -21.5q-66 0 -98.5 67t-32.5 183q0 115 32.5 183t98.5 68q27 0 52 -20t39 -59v67h68v-502q0 -93 -41 -135t-109 -42zM186 55q23 0 44.5 24.5t29.5 57.5v216q-9 32 -30 56.5
t-44 24.5q-77 0 -77 -190q0 -189 77 -189z" />
    <glyph glyph-name="h" unicode="h" 
d="M322 0h-68v372q0 62 -46 62q-26 0 -49 -23t-35 -56v-355h-68v667h68v-252q16 34 46 57t62 23q47 0 68.5 -25.5t21.5 -79.5v-390z" />
    <glyph glyph-name="i" unicode="i" horiz-adv-x="180" 
d="M90 554q-19 0 -33 14t-14 33t14 33t33 14q20 0 34 -14t14 -33t-14 -33t-34 -14zM124 0h-68v483h68v-483z" />
    <glyph glyph-name="j" unicode="j" horiz-adv-x="180" 
d="M90 554q-19 0 -33 14t-14 33t14 33t33 14q20 0 34 -14t14 -33t-14 -33t-34 -14zM27 -196q-40 0 -59 31l27 49q9 -19 28 -19q33 0 33 64v554h68v-554q0 -66 -24 -95.5t-73 -29.5z" />
    <glyph glyph-name="k" unicode="k" horiz-adv-x="361" 
d="M346 0h-75l-91 219l-56 -96v-123h-68v667h68v-451l148 267h74l-122 -216z" />
    <glyph glyph-name="l" unicode="l" horiz-adv-x="208" 
d="M141 -12q-44 0 -64.5 25.5t-20.5 78.5v575h68v-565q0 -28 7 -40.5t24 -12.5q20 0 32 17l22 -51q-27 -27 -68 -27z" />
    <glyph glyph-name="m" unicode="m" horiz-adv-x="576" 
d="M519 0h-68v371q0 63 -46 63q-25 0 -48 -23.5t-35 -55.5v-355h-68v371q0 63 -46 63q-26 0 -49 -23.5t-35 -55.5v-355h-68v483h68v-68q16 33 46 56.5t62 23.5q39 0 62 -21.5t26 -60.5q16 34 46.5 58t63.5 24q89 0 89 -105v-390z" />
    <glyph glyph-name="n" unicode="n" 
d="M322 0h-68v371q0 63 -46 63q-26 0 -49 -23t-35 -56v-355h-68v483h68v-68q16 34 46 57t62 23q90 0 90 -105v-390z" />
    <glyph glyph-name="o" unicode="o" horiz-adv-x="382" 
d="M191 -12q-78 0 -115.5 72t-37.5 182t37.5 181.5t115.5 71.5t115.5 -71.5t37.5 -181.5t-37.5 -182t-115.5 -72zM191 49q82 0 82 193q0 192 -82 192t-82 -192q0 -193 82 -193z" />
    <glyph glyph-name="p" unicode="p" horiz-adv-x="384" 
d="M215 -12q-27 0 -52 20t-39 59v-251h-68v667h68v-65q15 36 40.5 56.5t50.5 20.5q66 0 99 -68.5t33 -184.5q0 -115 -33 -184.5t-99 -69.5zM198 49q77 0 77 193q0 192 -77 192q-23 0 -44 -23.5t-30 -56.5v-224q9 -33 30.5 -57t43.5 -24z" />
    <glyph glyph-name="q" unicode="q" horiz-adv-x="384" 
d="M186 49q23 0 44 24.5t30 56.5v224q-8 33 -29.5 56.5t-44.5 23.5q-77 0 -77 -192q0 -193 77 -193zM169 -12q-65 0 -98 69.5t-33 184.5q0 116 32.5 184.5t98.5 68.5q25 0 50.5 -20.5t40.5 -56.5v65h68v-667h-68v251q-14 -39 -39 -59t-52 -20z" />
    <glyph glyph-name="r" unicode="r" horiz-adv-x="252" 
d="M124 0h-68v483h68v-77q38 87 113 87v-70q-12 2 -19 2q-29 0 -53.5 -23t-40.5 -58v-344z" />
    <glyph glyph-name="s" unicode="s" horiz-adv-x="309" 
d="M152 -12q-85 0 -131 61l33 47q39 -52 93 -52q30 0 50.5 19.5t20.5 52.5q0 25 -13.5 46t-33.5 34.5t-44 31t-44 35t-33.5 46.5t-13.5 66q0 52 35.5 86t92.5 34q69 0 115 -54l-32 -46q-30 44 -82 44q-29 0 -46.5 -18t-17.5 -44q0 -24 13.5 -44t33.5 -33.5t44 -31t44 -35.5
t33.5 -48.5t13.5 -67.5q0 -57 -37.5 -93t-93.5 -36z" />
    <glyph glyph-name="t" unicode="t" horiz-adv-x="233" 
d="M156 -12q-45 0 -65.5 25.5t-20.5 78.5v331h-49v60h49v132h69v-132h65v-60h-65v-321q0 -28 6.5 -40.5t23.5 -12.5q20 0 32 17l22 -51q-27 -27 -67 -27z" />
    <glyph glyph-name="u" unicode="u" 
d="M322 0h-68v66q-17 -34 -45.5 -56t-62.5 -22q-47 0 -68.5 25.5t-21.5 79.5v390h68v-372q0 -62 46 -62q26 0 49 22.5t35 54.5v357h68v-483z" />
    <glyph glyph-name="v" unicode="v" horiz-adv-x="326" 
d="M200 0h-75l-116 483h73l80 -399l82 399h73z" />
    <glyph glyph-name="w" unicode="w" horiz-adv-x="541" 
d="M423 0h-71l-81 389l-82 -389h-71l-105 483h72l72 -387l77 387h70l79 -387l73 387h72z" />
    <glyph glyph-name="x" unicode="x" horiz-adv-x="326" 
d="M313 0h-73l-77 190l-78 -190h-73l109 244l-103 239h73l72 -185l72 185h72l-103 -239z" />
    <glyph glyph-name="y" unicode="y" 
d="M178 -196q-82 0 -127 50l29 56q39 -45 93 -45q38 0 59.5 29.5t21.5 86.5v92q-17 -33 -45.5 -55t-62.5 -22q-48 0 -69 25t-21 79v383h68v-364q0 -63 46 -63q26 0 49 23t35 55v349h68v-502q0 -84 -37 -130.5t-107 -46.5z" />
    <glyph glyph-name="z" unicode="z" horiz-adv-x="303" 
d="M268 0h-234v54l151 369h-151v60h230v-52l-150 -371h154v-60z" />
    <glyph glyph-name="braceleft" unicode="{" horiz-adv-x="202" 
d="M185 -190h-30q-39 0 -68 29t-29 75v237q0 30 -13.5 50t-38.5 20v46q25 0 38.5 20t13.5 50v236q0 46 29 75.5t68 29.5h30v-51h-30q-18 0 -30.5 -15t-12.5 -39v-241q0 -69 -45 -88q45 -19 45 -88v-242q0 -23 12.5 -38t30.5 -15h30v-51z" />
    <glyph glyph-name="bar" unicode="|" horiz-adv-x="177" 
d="M114 -20h-51v707h51v-707z" />
    <glyph glyph-name="braceright" unicode="}" horiz-adv-x="202" 
d="M17 -190v51h30q18 0 30.5 15t12.5 38v242q0 69 45 88q-45 19 -45 88v241q0 24 -12.5 39t-30.5 15h-30v51h30q39 0 68 -29.5t29 -75.5v-236q0 -30 13.5 -50t38.5 -20v-46q-25 0 -38.5 -20t-13.5 -50v-237q0 -46 -29 -75t-68 -29h-30z" />
    <glyph glyph-name="asciitilde" unicode="~" horiz-adv-x="394" 
d="M315 667l52 -5q-2 -37 -5 -63t-10 -62t-18 -58t-30 -38t-45 -16q-33 0 -53 30t-25.5 66t-16 66t-28.5 30q-26 0 -36.5 -41.5t-19.5 -152.5l-53 6q2 36 5 63t10.5 62t18.5 57.5t30 38.5t45 16q33 0 53 -30t25.5 -66.5t16 -66.5t28.5 -30q26 0 36.5 41.5t19.5 152.5z" />
    <glyph glyph-name="uni00A0" unicode="&#xa0;" horiz-adv-x="171" 
 />
    <glyph glyph-name="exclamdown" unicode="&#xa1;" horiz-adv-x="227" 
d="M71 -184l14 484h57l15 -484h-86zM62 441q0 21 15 36.5t37 15.5q21 0 36.5 -15.5t15.5 -36.5t-15.5 -36t-36.5 -15q-22 0 -37 15t-15 36z" />
    <glyph glyph-name="cent" unicode="&#xa2;" horiz-adv-x="317" 
d="M174 -100v90q-65 10 -100.5 79.5t-35.5 172.5t35.5 171.5t100.5 79.5v72h54v-74q37 -8 67 -40l-28 -52q-19 23 -39 31v-378q21 8 39 32l28 -52q-26 -33 -67 -41v-91h-54zM109 242q0 -154 65 -186v371q-65 -33 -65 -185z" />
    <glyph glyph-name="sterling" unicode="&#xa3;" horiz-adv-x="380" 
d="M30 271v50h67q-16 31 -23.5 47.5t-16 50t-8.5 68.5q0 78 44 134t112 56q52 0 88.5 -30t49.5 -83l-60 -29q-23 78 -75 78q-31 0 -55 -35t-24 -93q0 -28 5.5 -53.5t11 -39t17.5 -38.5t16 -33h76v-50h-59q5 -25 5 -49q0 -38 -18.5 -79.5t-46.5 -65.5q20 10 38 10
q23 0 52.5 -15.5t46.5 -15.5q43 0 66 34l27 -59q-13 -18 -41.5 -30.5t-57.5 -12.5q-35 0 -66.5 20.5t-50.5 20.5q-32 0 -79 -36l-27 55q40 27 64 70.5t24 88.5q0 30 -12 64h-90z" />
    <glyph glyph-name="yen" unicode="&#xa5;" horiz-adv-x="372" 
d="M224 0h-76v123h-126v50h126v110h-126v49h107l-130 335h81l106 -307l107 307h80l-130 -335h106v-49h-125v-110h125v-50h-125v-123z" />
    <glyph glyph-name="brokenbar" unicode="&#xa6;" horiz-adv-x="177" 
d="M114 -20h-51v316h51v-316zM114 371h-51v316h51v-316z" />
    <glyph glyph-name="section" unicode="&#xa7;" horiz-adv-x="310" 
d="M283 299q0 -80 -72 -115q72 -56 72 -136q0 -54 -37 -91.5t-94 -37.5q-80 0 -131 61l33 46q40 -53 93 -53q31 0 51 22t20 52q0 31 -18.5 55.5t-45.5 42.5t-54 37.5t-45.5 51.5t-18.5 75q0 38 22 69t62 40q-84 61 -84 142q0 52 35.5 84.5t85.5 32.5q73 0 122 -55l-33 -42
q-37 45 -83 45q-27 0 -44.5 -18.5t-17.5 -46.5q0 -29 18.5 -52t45.5 -41t54 -38.5t45.5 -53.5t18.5 -76zM221 288q0 60 -56 103q-67 -12 -67 -73q0 -31 16 -56.5t55 -52.5q52 27 52 79z" />
    <glyph glyph-name="dieresis" unicode="&#xa8;" horiz-adv-x="264" 
d="M246 603q0 -18 -13 -30.5t-31 -12.5q-17 0 -30 12.5t-13 30.5t13 31t30 13q18 0 31 -13t13 -31zM105 603q0 -18 -13 -30.5t-31 -12.5q-17 0 -30 12.5t-13 30.5t13 31t30 13q18 0 31 -13t13 -31z" />
    <glyph glyph-name="copyright" unicode="&#xa9;" horiz-adv-x="778" 
d="M734 334q0 -142 -101 -243.5t-244 -101.5t-244 101.5t-101 243.5t101 243.5t244 101.5t244 -101.5t101 -243.5zM704 334q0 130 -92.5 222.5t-222.5 92.5t-222.5 -92.5t-92.5 -222.5t92.5 -222.5t222.5 -92.5t222.5 92.5t92.5 222.5zM512 211l25 -24q-57 -66 -145 -66
q-87 0 -148 61.5t-61 151.5q0 92 60.5 153t148.5 61q90 0 145 -65l-25 -24q-19 26 -52 41.5t-68 15.5q-71 0 -122 -50.5t-51 -131.5q0 -77 51.5 -129t121.5 -52q36 0 68 16t52 42z" />
    <glyph glyph-name="ordfeminine" unicode="&#xaa;" horiz-adv-x="279" 
d="M234 326h-53v33q-23 -41 -68 -41q-39 0 -62.5 28t-23.5 76q0 47 23.5 75t62.5 28q45 0 68 -38v52q0 65 -53 65q-37 0 -67 -36l-22 37q40 43 99 43q96 0 96 -113v-209zM129 355q37 0 52 38v60q-15 38 -52 38q-23 0 -36 -19.5t-13 -48.5q0 -30 13 -49t36 -19z" />
    <glyph glyph-name="guillemotleft" unicode="&#xab;" horiz-adv-x="325" 
d="M295 63h-58l-90 180l90 177h58l-90 -177zM178 63h-58l-90 180l90 177h58l-90 -177z" />
    <glyph glyph-name="logicalnot" unicode="&#xac;" 
d="M349 456v-244h-51v195h-269v49h320z" />
    <glyph glyph-name="registered" unicode="&#xae;" horiz-adv-x="494" 
d="M459 465q0 -88 -62 -150t-150 -62t-150 62t-62 150t62 150t150 62q89 0 150.5 -61.5t61.5 -150.5zM431 465q0 77 -53.5 130.5t-130.5 53.5t-130.5 -53.5t-53.5 -130.5q0 -76 54 -130t130 -54t130 54t54 130zM345 343h-40l-63 96h-44v-96h-32v243h99q32 0 54.5 -20.5
t22.5 -53.5q0 -35 -22.5 -53.5t-39.5 -18.5zM309 512q0 19 -13.5 32.5t-30.5 13.5h-67v-90h67q16 0 30 13t14 31z" />
    <glyph glyph-name="macron" unicode="&#xaf;" horiz-adv-x="248" 
d="M248 591h-248v45h248v-45z" />
    <glyph glyph-name="degree" unicode="&#xb0;" horiz-adv-x="288" 
d="M264 556q0 -49 -35.5 -84t-85.5 -35q-49 0 -84 34.5t-35 84.5t35 85.5t84 35.5q50 0 85.5 -35.5t35.5 -85.5zM219 556q0 31 -22.5 53.5t-53.5 22.5t-52.5 -22.5t-21.5 -53.5t21.5 -52.5t52.5 -21.5t53.5 21.5t22.5 52.5z" />
    <glyph glyph-name="plusminus" unicode="&#xb1;" 
d="M349 313h-133v-155h-54v155h-133v49h133v148h54v-148h133v-49zM349 45h-320v49h320v-49z" />
    <glyph glyph-name="twosuperior" unicode="&#xb2;" horiz-adv-x="264" 
d="M241 421h-210v42q98 129 125.5 174.5t27.5 83.5q0 27 -15 43.5t-38 16.5q-45 0 -71 -51l-36 32q40 65 109 65q48 0 77.5 -28.5t29.5 -76.5q0 -42 -27.5 -89.5t-113.5 -165.5h142v-46z" />
    <glyph glyph-name="threesuperior" unicode="&#xb3;" horiz-adv-x="264" 
d="M243 530q0 -52 -29.5 -84t-82.5 -32q-75 0 -111 66l38 32q27 -52 71 -52q58 0 58 73q0 38 -18 54.5t-44 16.5q-21 0 -26 -1v46q5 -1 24 -1q27 0 43.5 17t16.5 49q0 67 -54 67q-43 0 -67 -47l-38 29q36 64 107 64q48 0 77 -27t29 -80q0 -33 -18 -59t-46 -33q28 -6 49 -33
t21 -65z" />
    <glyph glyph-name="acute" unicode="&#xb4;" horiz-adv-x="146" 
d="M146 700l-100 -144h-46l79 144h67z" />
    <glyph glyph-name="mu" unicode="&#xb5;" 
d="M124 -184h-68v667h68v-372q0 -64 46 -64q26 0 49 23t35 56v357h68v-483h-68v66q-17 -34 -45.5 -56t-62.5 -22q-8 0 -22 2v-174z" />
    <glyph glyph-name="paragraph" unicode="&#xb6;" horiz-adv-x="449" 
d="M375 -100h-43v724h-90v-724h-43v423q-71 0 -121.5 50.5t-50.5 121.5t50.5 121.5t121.5 50.5h176v-767z" />
    <glyph glyph-name="periodcentered" unicode="&#xb7;" horiz-adv-x="227" 
d="M165 245q0 -21 -15 -36.5t-37 -15.5q-21 0 -36.5 15.5t-15.5 36.5q0 20 15.5 35.5t36.5 15.5t36.5 -15t15.5 -36z" />
    <glyph glyph-name="cedilla" unicode="&#xb8;" horiz-adv-x="165" 
d="M77 -190q-41 0 -77 29l17 35q30 -27 59 -27q19 0 33 12t14 31q0 34 -29 34q-14 0 -28 -14l-31 17l31 84h43l-27 -67q13 10 29 10q23 0 38.5 -18t15.5 -47q0 -35 -25 -57t-63 -22z" />
    <glyph glyph-name="onesuperior" unicode="&#xb9;" horiz-adv-x="215" 
d="M163 421h-56v328l-60 -63l-32 33l99 102h49v-400z" />
    <glyph glyph-name="ordmasculine" unicode="&#xba;" horiz-adv-x="289" 
d="M144 318q-55 0 -84 47.5t-29 117.5t29 117.5t84 47.5q56 0 84.5 -47t28.5 -118t-28.5 -118t-84.5 -47zM144 363q58 0 58 120q0 119 -58 119q-57 0 -57 -119q0 -120 57 -120z" />
    <glyph glyph-name="guillemotright" unicode="&#xbb;" horiz-adv-x="325" 
d="M178 243l-90 -180h-58l90 180l-90 177h58zM295 243l-90 -180h-58l90 180l-90 177h58z" />
    <glyph glyph-name="onequarter" unicode="&#xbc;" horiz-adv-x="576" 
d="M443 667l-274 -667h-41l274 667h41zM560 102h-36v-102h-55v102h-141v46l128 252h68v-252h36v-46zM469 148v188l-93 -188h93zM163 267h-56v328l-60 -63l-32 33l99 102h49v-400z" />
    <glyph glyph-name="onehalf" unicode="&#xbd;" horiz-adv-x="608" 
d="M443 667l-274 -667h-41l274 667h41zM585 0h-210v42q98 129 125.5 174.5t27.5 83.5q0 27 -15 43.5t-38 16.5q-45 0 -71 -51l-36 32q40 65 109 65q48 0 77.5 -28.5t29.5 -76.5q0 -42 -27.5 -89.5t-113.5 -165.5h142v-46zM163 267h-56v328l-60 -63l-32 33l99 102h49v-400z
" />
    <glyph glyph-name="threequarters" unicode="&#xbe;" horiz-adv-x="612" 
d="M479 667l-274 -667h-41l274 667h41zM596 102h-36v-102h-55v102h-141v46l128 252h68v-252h36v-46zM505 148v188l-93 -188h93zM243 376q0 -52 -29.5 -84t-82.5 -32q-75 0 -111 66l38 32q27 -52 71 -52q58 0 58 73q0 38 -18 54.5t-44 16.5q-21 0 -26 -1v46q5 -1 24 -1
q27 0 43.5 17t16.5 49q0 67 -54 67q-43 0 -67 -47l-38 29q36 64 107 64q48 0 77 -27t29 -80q0 -33 -18 -59t-46 -33q28 -6 49 -33t21 -65z" />
    <glyph glyph-name="questiondown" unicode="&#xbf;" horiz-adv-x="271" 
d="M178 298q27 -34 27 -84q0 -40 -16.5 -75t-36.5 -57t-36.5 -55.5t-16.5 -70.5q0 -34 21 -60.5t54 -26.5q37 0 67 34l34 -50q-46 -50 -115 -50q-59 0 -97.5 41t-38.5 100q0 45 18 84.5t39.5 63.5t39.5 57.5t18 67.5q0 31 -19 54zM153 493q21 0 36.5 -15.5t15.5 -36.5
t-15.5 -36t-36.5 -15t-36.5 15t-15.5 36t15.5 36.5t36.5 15.5z" />
    <glyph glyph-name="Agrave" unicode="&#xc0;" horiz-adv-x="364" 
d="M233 728h-46l-100 144h68zM357 0h-78l-26 153h-143l-26 -153h-77l131 667h87zM244 220l-62 357l-62 -357h124z" />
    <glyph glyph-name="Aacute" unicode="&#xc1;" horiz-adv-x="364" 
d="M278 872l-100 -144h-46l79 144h67zM357 0h-78l-26 153h-143l-26 -153h-77l131 667h87zM244 220l-62 357l-62 -357h124z" />
    <glyph glyph-name="Acircumflex" unicode="&#xc2;" horiz-adv-x="364" 
d="M283 728h-42l-60 105l-58 -105h-41l65 144h67zM357 0h-78l-26 153h-143l-26 -153h-77l131 667h87zM244 220l-62 357l-62 -357h124z" />
    <glyph glyph-name="Atilde" unicode="&#xc3;" horiz-adv-x="364" 
d="M222 726q-19 0 -31 15t-17 32.5t-13 32.5t-19 15q-34 0 -34 -89h-39q0 60 18.5 97t54.5 37q19 0 31 -15t17 -32.5t13 -32.5t19 -15q34 0 34 89h40q0 -59 -19 -96.5t-55 -37.5zM357 0h-78l-26 153h-143l-26 -153h-77l131 667h87zM244 220l-62 357l-62 -357h124z" />
    <glyph glyph-name="Adieresis" unicode="&#xc4;" horiz-adv-x="364" 
d="M296 772q0 -18 -13 -30.5t-31 -12.5q-17 0 -30 12.5t-13 30.5t13 31t30 13q18 0 31 -13t13 -31zM155 772q0 -18 -13 -30.5t-31 -12.5q-17 0 -30 12.5t-13 30.5t13 31t30 13q18 0 31 -13t13 -31zM357 0h-78l-26 153h-143l-26 -153h-77l131 667h87zM244 220l-62 357
l-62 -357h124z" />
    <glyph glyph-name="Aring" unicode="&#xc5;" horiz-adv-x="364" 
d="M183 692q-35 0 -59 24t-24 59t24 59t59 24q34 0 58 -24t24 -59t-24 -59t-58 -24zM183 728q19 0 33 14t14 33t-14 33t-33 14t-33 -14t-14 -33t14 -33t33 -14zM357 0h-78l-26 153h-143l-26 -153h-77l131 667h87zM244 220l-62 357l-62 -357h124z" />
    <glyph glyph-name="AE" unicode="&#xc6;" horiz-adv-x="554" 
d="M511 0h-247v153h-126l-47 -153h-77l217 667h280v-67h-172v-225h165v-67h-165v-241h172v-67zM264 220v357l-108 -357h108z" />
    <glyph glyph-name="Ccedilla" unicode="&#xc7;" horiz-adv-x="390" 
d="M212 -186q-41 0 -77 29l17 35q30 -27 59 -27q19 0 33 12t14 31q0 34 -29 34q-14 0 -28 -14l-31 17l22 59q-76 14 -112.5 106t-36.5 237q0 156 42.5 250.5t131.5 94.5q99 0 138 -128l-62 -24q-13 43 -29.5 63.5t-46.5 20.5q-96 0 -96 -277t96 -277q33 0 50.5 26.5
t27.5 74.5l63 -23q-32 -134 -125 -145l-16 -41q13 10 29 10q23 0 38.5 -18t15.5 -47q0 -35 -25 -57t-63 -22z" />
    <glyph glyph-name="Egrave" unicode="&#xc8;" horiz-adv-x="352" 
d="M241 728h-46l-100 144h68zM311 0h-248v667h248v-67h-173v-225h166v-67h-166v-241h173v-67z" />
    <glyph glyph-name="Eacute" unicode="&#xc9;" horiz-adv-x="352" 
d="M285 872l-100 -144h-46l79 144h67zM311 0h-248v667h248v-67h-173v-225h166v-67h-166v-241h173v-67z" />
    <glyph glyph-name="Ecircumflex" unicode="&#xca;" horiz-adv-x="352" 
d="M290 728h-42l-60 105l-58 -105h-41l65 144h67zM311 0h-248v667h248v-67h-173v-225h166v-67h-166v-241h173v-67z" />
    <glyph glyph-name="Edieresis" unicode="&#xcb;" horiz-adv-x="352" 
d="M302 772q0 -18 -13 -30.5t-31 -12.5q-17 0 -30 12.5t-13 30.5t13 31t30 13q18 0 31 -13t13 -31zM161 772q0 -18 -13 -30.5t-31 -12.5q-17 0 -30 12.5t-13 30.5t13 31t30 13q18 0 31 -13t13 -31zM311 0h-248v667h248v-67h-173v-225h166v-67h-166v-241h173v-67z" />
    <glyph glyph-name="Igrave" unicode="&#xcc;" horiz-adv-x="201" 
d="M152 728h-46l-100 144h68zM138 0h-75v667h75v-667z" />
    <glyph glyph-name="Iacute" unicode="&#xcd;" horiz-adv-x="201" 
d="M198 872l-100 -144h-46l79 144h67zM138 0h-75v667h75v-667z" />
    <glyph glyph-name="Icircumflex" unicode="&#xce;" horiz-adv-x="201" 
d="M202 728h-42l-60 105l-58 -105h-41l65 144h67zM138 0h-75v667h75v-667z" />
    <glyph glyph-name="Idieresis" unicode="&#xcf;" horiz-adv-x="201" 
d="M217 772q0 -18 -13 -30.5t-31 -12.5q-17 0 -30 12.5t-13 30.5t13 31t30 13q18 0 31 -13t13 -31zM76 772q0 -18 -13 -30.5t-31 -12.5q-17 0 -30 12.5t-13 30.5t13 31t30 13q18 0 31 -13t13 -31zM138 0h-75v667h75v-667z" />
    <glyph glyph-name="Eth" unicode="&#xd0;" horiz-adv-x="446" 
d="M209 0h-127v302h-61v56h61v309h126q100 0 148 -90.5t48 -243.5q0 -154 -47.5 -243.5t-147.5 -89.5zM240 302h-83v-235h52q116 0 116 266q0 267 -116 267h-52v-242h83v-56z" />
    <glyph glyph-name="Ntilde" unicode="&#xd1;" horiz-adv-x="436" 
d="M255 726q-19 0 -31 15t-17 32.5t-13 32.5t-19 15q-34 0 -34 -89h-39q0 60 18.5 97t54.5 37q19 0 31 -15t17 -32.5t13 -32.5t19 -15q34 0 34 89h40q0 -59 -18.5 -96.5t-55.5 -37.5zM373 0h-72l-163 486v-486h-75v667h75l160 -476v476h75v-667z" />
    <glyph glyph-name="Ograve" unicode="&#xd2;" horiz-adv-x="434" 
d="M267 728h-46l-100 144h68zM217 -12q-61 0 -101 48t-56.5 122.5t-16.5 174.5t16.5 174.5t56.5 122.5t101 48t101 -48t56.5 -122.5t16.5 -174.5t-16.5 -174.5t-56.5 -122.5t-101 -48zM217 56q50 0 73 77t23 200q0 124 -23 200.5t-73 76.5q-96 0 -96 -277t96 -277z" />
    <glyph glyph-name="Oacute" unicode="&#xd3;" horiz-adv-x="434" 
d="M313 872l-100 -144h-46l79 144h67zM217 -12q-61 0 -101 48t-56.5 122.5t-16.5 174.5t16.5 174.5t56.5 122.5t101 48t101 -48t56.5 -122.5t16.5 -174.5t-16.5 -174.5t-56.5 -122.5t-101 -48zM217 56q50 0 73 77t23 200q0 124 -23 200.5t-73 76.5q-96 0 -96 -277t96 -277z
" />
    <glyph glyph-name="Ocircumflex" unicode="&#xd4;" horiz-adv-x="434" 
d="M318 728h-42l-60 105l-58 -105h-41l65 144h67zM217 -12q-61 0 -101 48t-56.5 122.5t-16.5 174.5t16.5 174.5t56.5 122.5t101 48t101 -48t56.5 -122.5t16.5 -174.5t-16.5 -174.5t-56.5 -122.5t-101 -48zM217 56q50 0 73 77t23 200q0 124 -23 200.5t-73 76.5
q-96 0 -96 -277t96 -277z" />
    <glyph glyph-name="Otilde" unicode="&#xd5;" horiz-adv-x="434" 
d="M257 726q-19 0 -31 15t-17 32.5t-13 32.5t-19 15q-34 0 -34 -89h-39q0 60 18.5 97t54.5 37q19 0 31 -15t17 -32.5t13 -32.5t19 -15q34 0 34 89h40q0 -59 -18.5 -96.5t-55.5 -37.5zM217 -12q-61 0 -101 48t-56.5 122.5t-16.5 174.5t16.5 174.5t56.5 122.5t101 48t101 -48
t56.5 -122.5t16.5 -174.5t-16.5 -174.5t-56.5 -122.5t-101 -48zM217 56q50 0 73 77t23 200q0 124 -23 200.5t-73 76.5q-96 0 -96 -277t96 -277z" />
    <glyph glyph-name="Odieresis" unicode="&#xd6;" horiz-adv-x="434" 
d="M331 772q0 -18 -13 -30.5t-31 -12.5q-17 0 -30 12.5t-13 30.5t13 31t30 13q18 0 31 -13t13 -31zM190 772q0 -18 -13 -30.5t-31 -12.5q-17 0 -30 12.5t-13 30.5t13 31t30 13q18 0 31 -13t13 -31zM217 -12q-61 0 -101 48t-56.5 122.5t-16.5 174.5t16.5 174.5t56.5 122.5
t101 48t101 -48t56.5 -122.5t16.5 -174.5t-16.5 -174.5t-56.5 -122.5t-101 -48zM217 56q50 0 73 77t23 200q0 124 -23 200.5t-73 76.5q-96 0 -96 -277t96 -277z" />
    <glyph glyph-name="multiply" unicode="&#xd7;" 
d="M296 192l-107 107l-107 -107l-35 35l108 107l-108 107l35 35l107 -107l107 107l35 -35l-107 -107l107 -107z" />
    <glyph glyph-name="Oslash" unicode="&#xd8;" horiz-adv-x="434" 
d="M217 -12q-58 0 -99 44l-13 -32h-52l33 80q-43 90 -43 253q0 100 16.5 174.5t56.5 122.5t101 48q59 0 99 -45l14 34h51l-34 -81q44 -89 44 -253q0 -100 -16.5 -174.5t-56.5 -122.5t-101 -48zM121 333q0 -85 10 -145l151 365q-24 57 -65 57q-96 0 -96 -277zM217 56
q50 0 73 77t23 200q0 85 -10 145l-152 -366q24 -56 66 -56z" />
    <glyph glyph-name="Ugrave" unicode="&#xd9;" horiz-adv-x="437" 
d="M269 728h-46l-100 144h68zM218 -12q-70 0 -112.5 46t-42.5 138v495h75v-498q0 -114 80 -114q81 0 81 114v498h75v-495q0 -93 -42.5 -138.5t-113.5 -45.5z" />
    <glyph glyph-name="Uacute" unicode="&#xda;" horiz-adv-x="437" 
d="M314 872l-100 -144h-46l79 144h67zM218 -12q-70 0 -112.5 46t-42.5 138v495h75v-498q0 -114 80 -114q81 0 81 114v498h75v-495q0 -93 -42.5 -138.5t-113.5 -45.5z" />
    <glyph glyph-name="Ucircumflex" unicode="&#xdb;" horiz-adv-x="437" 
d="M319 728h-42l-60 105l-58 -105h-41l65 144h67zM218 -12q-70 0 -112.5 46t-42.5 138v495h75v-498q0 -114 80 -114q81 0 81 114v498h75v-495q0 -93 -42.5 -138.5t-113.5 -45.5z" />
    <glyph glyph-name="Udieresis" unicode="&#xdc;" horiz-adv-x="437" 
d="M332 772q0 -18 -13 -30.5t-31 -12.5q-17 0 -30 12.5t-13 30.5t13 31t30 13q18 0 31 -13t13 -31zM191 772q0 -18 -13 -30.5t-31 -12.5q-17 0 -30 12.5t-13 30.5t13 31t30 13q18 0 31 -13t13 -31zM218 -12q-70 0 -112.5 46t-42.5 138v495h75v-498q0 -114 80 -114
q81 0 81 114v498h75v-495q0 -93 -42.5 -138.5t-113.5 -45.5z" />
    <glyph glyph-name="Yacute" unicode="&#xdd;" horiz-adv-x="372" 
d="M285 872l-100 -144h-46l79 144h67zM224 0h-76v283l-149 384h81l106 -307l107 307h80l-149 -384v-283z" />
    <glyph glyph-name="Thorn" unicode="&#xde;" horiz-adv-x="387" 
d="M138 0h-75v667h75v-121h62q78 0 118.5 -57t40.5 -143q0 -85 -40.5 -141.5t-118.5 -56.5h-62v-148zM193 216q43 0 65.5 35t22.5 95q0 61 -22.5 97t-65.5 36h-55v-263h55z" />
    <glyph glyph-name="germandbls" unicode="&#xdf;" horiz-adv-x="452" 
d="M436 117q0 -53 -36.5 -91t-91.5 -38q-75 0 -127 61l31 49q41 -54 86 -54q26 0 46.5 20t20.5 52q0 30 -17.5 53.5t-42.5 41t-50.5 36.5t-43 50t-17.5 72q0 30 15.5 55.5t33.5 40t33.5 36.5t15.5 46q0 29 -21.5 49t-55.5 20q-36 0 -58.5 -24t-22.5 -73v-519h-68v519
q0 69 41 113.5t108 44.5q62 0 103.5 -35.5t41.5 -88.5q0 -34 -15.5 -61.5t-34 -42.5t-34 -35t-15.5 -41q0 -28 18 -50t43.5 -39t51.5 -36.5t44 -53t18 -77.5z" />
    <glyph glyph-name="agrave" unicode="&#xe0;" horiz-adv-x="384" 
d="M244 556h-46l-100 144h68zM328 0h-68v65q-15 -36 -40.5 -56.5t-50.5 -20.5q-66 0 -98.5 68.5t-32.5 184.5q0 115 33 184.5t98 69.5q27 0 52 -20t39 -59v67h68v-483zM186 49q23 0 44.5 24t29.5 56v223q-8 33 -29.5 57.5t-44.5 24.5q-77 0 -77 -193q0 -192 77 -192z" />
    <glyph glyph-name="aacute" unicode="&#xe1;" horiz-adv-x="384" 
d="M289 700l-100 -144h-46l79 144h67zM328 0h-68v65q-15 -36 -40.5 -56.5t-50.5 -20.5q-66 0 -98.5 68.5t-32.5 184.5q0 115 33 184.5t98 69.5q27 0 52 -20t39 -59v67h68v-483zM186 49q23 0 44.5 24t29.5 56v223q-8 33 -29.5 57.5t-44.5 24.5q-77 0 -77 -193q0 -192 77 -192
z" />
    <glyph glyph-name="acircumflex" unicode="&#xe2;" horiz-adv-x="384" 
d="M295 556h-42l-60 105l-58 -105h-41l65 144h67zM328 0h-68v65q-15 -36 -40.5 -56.5t-50.5 -20.5q-66 0 -98.5 68.5t-32.5 184.5q0 115 33 184.5t98 69.5q27 0 52 -20t39 -59v67h68v-483zM186 49q23 0 44.5 24t29.5 56v223q-8 33 -29.5 57.5t-44.5 24.5q-77 0 -77 -193
q0 -192 77 -192z" />
    <glyph glyph-name="atilde" unicode="&#xe3;" horiz-adv-x="384" 
d="M233 554q-19 0 -31 15t-17 32.5t-13 32.5t-19 15q-34 0 -34 -89h-39q0 60 18.5 97t54.5 37q19 0 31 -15t17 -32.5t13 -32.5t19 -15q34 0 34 89h40q0 -59 -18.5 -96.5t-55.5 -37.5zM328 0h-68v65q-15 -36 -40.5 -56.5t-50.5 -20.5q-66 0 -98.5 68.5t-32.5 184.5
q0 115 33 184.5t98 69.5q27 0 52 -20t39 -59v67h68v-483zM186 49q23 0 44.5 24t29.5 56v223q-8 33 -29.5 57.5t-44.5 24.5q-77 0 -77 -193q0 -192 77 -192z" />
    <glyph glyph-name="adieresis" unicode="&#xe4;" horiz-adv-x="384" 
d="M306 603q0 -18 -13 -30.5t-31 -12.5q-17 0 -30 12.5t-13 30.5t13 31t30 13q18 0 31 -13t13 -31zM165 603q0 -18 -13 -30.5t-31 -12.5q-17 0 -30 12.5t-13 30.5t13 31t30 13q18 0 31 -13t13 -31zM328 0h-68v65q-15 -36 -40.5 -56.5t-50.5 -20.5q-66 0 -98.5 68.5
t-32.5 184.5q0 115 33 184.5t98 69.5q27 0 52 -20t39 -59v67h68v-483zM186 49q23 0 44.5 24t29.5 56v223q-8 33 -29.5 57.5t-44.5 24.5q-77 0 -77 -193q0 -192 77 -192z" />
    <glyph glyph-name="aring" unicode="&#xe5;" horiz-adv-x="384" 
d="M194 555q-34 0 -58.5 24.5t-24.5 58.5t24.5 58.5t58.5 24.5t58 -24t24 -59t-24 -59t-58 -24zM194 591q20 0 33.5 13.5t13.5 33.5t-13.5 33.5t-33.5 13.5t-33.5 -13.5t-13.5 -33.5t13.5 -33.5t33.5 -13.5zM328 0h-68v65q-15 -36 -40.5 -56.5t-50.5 -20.5q-66 0 -98.5 68.5
t-32.5 184.5q0 115 33 184.5t98 69.5q27 0 52 -20t39 -59v67h68v-483zM186 49q23 0 44.5 24t29.5 56v223q-8 33 -29.5 57.5t-44.5 24.5q-77 0 -77 -193q0 -192 77 -192z" />
    <glyph glyph-name="ae" unicode="&#xe6;" horiz-adv-x="595" 
d="M328 0h-68v65q-15 -36 -40.5 -56.5t-50.5 -20.5q-66 0 -98.5 68.5t-32.5 184.5q0 115 33 184.5t98 69.5q27 0 52 -20t39 -59v67h68v-68q26 80 96 80q72 0 105 -69.5t33 -182.5v-24h-234v-8q2 -77 28 -121t76 -44q47 0 80 59l40 -41q-42 -76 -111 -76q-85 0 -113 90v-78z
M186 49q23 0 44.5 24t29.5 56v223q-8 33 -29.5 57.5t-44.5 24.5q-77 0 -77 -193q0 -192 77 -192zM494 270q0 69 -19 118.5t-64 49.5q-22 0 -39 -14.5t-26 -39t-13.5 -50.5t-4.5 -54v-10h166z" />
    <glyph glyph-name="ccedilla" unicode="&#xe7;" horiz-adv-x="317" 
d="M193 -188q-41 0 -77 29l17 35q30 -27 59 -27q19 0 33 12t14 31q0 34 -29 34q-14 0 -28 -14l-31 17l22 61q-65 11 -100 80t-35 172q0 112 41.5 182.5t116.5 70.5q59 0 99 -44l-28 -52q-28 35 -62 35q-49 0 -72.5 -55t-23.5 -137t23.5 -137.5t72.5 -55.5q35 0 62 35l28 -52
q-31 -38 -80 -43l-17 -43q13 10 29 10q23 0 38.5 -18t15.5 -47q0 -35 -25 -57t-63 -22z" />
    <glyph glyph-name="egrave" unicode="&#xe8;" horiz-adv-x="373" 
d="M205 -12q-82 0 -124.5 69.5t-42.5 184.5q0 112 38.5 182.5t114.5 70.5q77 0 113 -69.5t36 -182.5v-24h-234q1 -80 27.5 -127t76.5 -47q47 0 80 59l40 -37q-48 -79 -125 -79zM272 270q0 69 -19 118.5t-64 49.5q-31 0 -51 -29t-26 -64t-6 -75h166zM243 556h-46l-100 144h68
z" />
    <glyph glyph-name="eacute" unicode="&#xe9;" horiz-adv-x="373" 
d="M205 -12q-82 0 -124.5 69.5t-42.5 184.5q0 112 38.5 182.5t114.5 70.5q77 0 113 -69.5t36 -182.5v-24h-234q1 -80 27.5 -127t76.5 -47q47 0 80 59l40 -37q-48 -79 -125 -79zM272 270q0 69 -19 118.5t-64 49.5q-31 0 -51 -29t-26 -64t-6 -75h166zM288 700l-100 -144h-46
l79 144h67z" />
    <glyph glyph-name="ecircumflex" unicode="&#xea;" horiz-adv-x="373" 
d="M205 -12q-82 0 -124.5 69.5t-42.5 184.5q0 112 38.5 182.5t114.5 70.5q77 0 113 -69.5t36 -182.5v-24h-234q1 -80 27.5 -127t76.5 -47q47 0 80 59l40 -37q-48 -79 -125 -79zM272 270q0 69 -19 118.5t-64 49.5q-31 0 -51 -29t-26 -64t-6 -75h166zM292 556h-42l-60 105
l-58 -105h-41l65 144h67z" />
    <glyph glyph-name="edieresis" unicode="&#xeb;" horiz-adv-x="373" 
d="M205 -12q-82 0 -124.5 69.5t-42.5 184.5q0 112 38.5 182.5t114.5 70.5q77 0 113 -69.5t36 -182.5v-24h-234q1 -80 27.5 -127t76.5 -47q47 0 80 59l40 -37q-48 -79 -125 -79zM272 270q0 69 -19 118.5t-64 49.5q-31 0 -51 -29t-26 -64t-6 -75h166zM303 603q0 -18 -13 -30.5
t-31 -12.5q-17 0 -30 12.5t-13 30.5t13 31t30 13q18 0 31 -13t13 -31zM162 603q0 -18 -13 -30.5t-31 -12.5q-17 0 -30 12.5t-13 30.5t13 31t30 13q18 0 31 -13t13 -31z" />
    <glyph glyph-name="igrave" unicode="&#xec;" horiz-adv-x="180" 
d="M141 556h-46l-100 144h68zM124 0h-68v483h68v-483z" />
    <glyph glyph-name="iacute" unicode="&#xed;" horiz-adv-x="180" 
d="M186 700l-100 -144h-46l79 144h67zM124 0h-68v483h68v-483z" />
    <glyph glyph-name="icircumflex" unicode="&#xee;" horiz-adv-x="180" 
d="M192 556h-42l-60 105l-58 -105h-41l65 144h67zM124 0h-68v483h68v-483z" />
    <glyph glyph-name="idieresis" unicode="&#xef;" horiz-adv-x="180" 
d="M204 603q0 -18 -13 -30.5t-31 -12.5q-17 0 -30 12.5t-13 30.5t13 31t30 13q18 0 31 -13t13 -31zM63 603q0 -18 -13 -30.5t-31 -12.5q-17 0 -30 12.5t-13 30.5t13 31t30 13q18 0 31 -13t13 -31zM124 0h-68v483h68v-483z" />
    <glyph glyph-name="eth" unicode="&#xf0;" horiz-adv-x="382" 
d="M118 513l-18 38l98 43q-23 46 -35 65l62 30q16 -26 35 -67l69 31l17 -37l-69 -31q67 -162 67 -330q0 -121 -37 -194t-116 -73q-78 0 -115.5 70t-37.5 177q0 106 34.5 176t103.5 70q57 0 83 -61q-14 62 -44 137zM191 49q82 0 82 186t-82 186q-44 0 -63 -53.5t-19 -132.5
q0 -186 82 -186z" />
    <glyph glyph-name="ntilde" unicode="&#xf1;" 
d="M322 0h-68v371q0 63 -46 63q-26 0 -49 -23t-35 -56v-355h-68v483h68v-68q16 34 46 57t62 23q90 0 90 -105v-390zM231 554q-19 0 -31 15t-17 32.5t-13 32.5t-19 15q-34 0 -34 -89h-39q0 60 18.5 97t54.5 37q19 0 31 -15t17 -32.5t13 -32.5t19 -15q34 0 34 89h40
q0 -59 -18.5 -96.5t-55.5 -37.5z" />
    <glyph glyph-name="ograve" unicode="&#xf2;" horiz-adv-x="382" 
d="M191 -12q-78 0 -115.5 72t-37.5 182t37.5 181.5t115.5 71.5t115.5 -71.5t37.5 -181.5t-37.5 -182t-115.5 -72zM191 49q82 0 82 193q0 192 -82 192t-82 -192q0 -193 82 -193zM242 556h-46l-100 144h68z" />
    <glyph glyph-name="oacute" unicode="&#xf3;" horiz-adv-x="382" 
d="M191 -12q-78 0 -115.5 72t-37.5 182t37.5 181.5t115.5 71.5t115.5 -71.5t37.5 -181.5t-37.5 -182t-115.5 -72zM191 49q82 0 82 193q0 192 -82 192t-82 -192q0 -193 82 -193zM287 700l-100 -144h-46l79 144h67z" />
    <glyph glyph-name="ocircumflex" unicode="&#xf4;" horiz-adv-x="382" 
d="M191 -12q-78 0 -115.5 72t-37.5 182t37.5 181.5t115.5 71.5t115.5 -71.5t37.5 -181.5t-37.5 -182t-115.5 -72zM191 49q82 0 82 193q0 192 -82 192t-82 -192q0 -193 82 -193zM292 556h-42l-60 105l-58 -105h-41l65 144h67z" />
    <glyph glyph-name="otilde" unicode="&#xf5;" horiz-adv-x="382" 
d="M191 -12q-78 0 -115.5 72t-37.5 182t37.5 181.5t115.5 71.5t115.5 -71.5t37.5 -181.5t-37.5 -182t-115.5 -72zM191 49q82 0 82 193q0 192 -82 192t-82 -192q0 -193 82 -193zM231 554q-19 0 -31 15t-17 32.5t-13 32.5t-19 15q-34 0 -34 -89h-39q0 60 18.5 97t54.5 37
q19 0 31 -15t17 -32.5t13 -32.5t19 -15q34 0 34 89h40q0 -59 -18.5 -96.5t-55.5 -37.5z" />
    <glyph glyph-name="odieresis" unicode="&#xf6;" horiz-adv-x="382" 
d="M191 -12q-78 0 -115.5 72t-37.5 182t37.5 181.5t115.5 71.5t115.5 -71.5t37.5 -181.5t-37.5 -182t-115.5 -72zM191 49q82 0 82 193q0 192 -82 192t-82 -192q0 -193 82 -193zM306 603q0 -18 -13 -30.5t-31 -12.5q-17 0 -30 12.5t-13 30.5t13 31t30 13q18 0 31 -13t13 -31z
M165 603q0 -18 -13 -30.5t-31 -12.5q-17 0 -30 12.5t-13 30.5t13 31t30 13q18 0 31 -13t13 -31z" />
    <glyph glyph-name="divide" unicode="&#xf7;" horiz-adv-x="374" 
d="M232 478q0 -18 -12.5 -31t-31.5 -13q-18 0 -30.5 13t-12.5 31t12.5 31t30.5 13q19 0 31.5 -13t12.5 -31zM345 313h-316v49h316v-49zM232 192q0 -18 -12.5 -31t-31.5 -13q-18 0 -30.5 13t-12.5 31t12.5 31t30.5 13q19 0 31.5 -13t12.5 -31z" />
    <glyph glyph-name="oslash" unicode="&#xf8;" horiz-adv-x="382" 
d="M91 0h-45l30 59q-38 66 -38 183q0 110 37.5 181.5t115.5 71.5q51 0 88 -35l12 23h45l-30 -59q38 -69 38 -182q0 -110 -37.5 -182t-115.5 -72q-53 0 -88 35zM191 49q82 0 82 193q0 60 -8 101l-130 -256q19 -38 56 -38zM109 242q0 -61 8 -102l130 256q-21 38 -56 38
q-82 0 -82 -192z" />
    <glyph glyph-name="ugrave" unicode="&#xf9;" 
d="M322 0h-68v66q-17 -34 -45.5 -56t-62.5 -22q-47 0 -68.5 25.5t-21.5 79.5v390h68v-372q0 -62 46 -62q26 0 49 22.5t35 54.5v357h68v-483zM241 556h-46l-100 144h68z" />
    <glyph glyph-name="uacute" unicode="&#xfa;" 
d="M322 0h-68v66q-17 -34 -45.5 -56t-62.5 -22q-47 0 -68.5 25.5t-21.5 79.5v390h68v-372q0 -62 46 -62q26 0 49 22.5t35 54.5v357h68v-483zM285 700l-100 -144h-46l79 144h67z" />
    <glyph glyph-name="ucircumflex" unicode="&#xfb;" 
d="M322 0h-68v66q-17 -34 -45.5 -56t-62.5 -22q-47 0 -68.5 25.5t-21.5 79.5v390h68v-372q0 -62 46 -62q26 0 49 22.5t35 54.5v357h68v-483zM291 556h-42l-60 105l-58 -105h-41l65 144h67z" />
    <glyph glyph-name="udieresis" unicode="&#xfc;" 
d="M322 0h-68v66q-17 -34 -45.5 -56t-62.5 -22q-47 0 -68.5 25.5t-21.5 79.5v390h68v-372q0 -62 46 -62q26 0 49 22.5t35 54.5v357h68v-483zM305 603q0 -18 -13 -30.5t-31 -12.5q-17 0 -30 12.5t-13 30.5t13 31t30 13q18 0 31 -13t13 -31zM164 603q0 -18 -13 -30.5
t-31 -12.5q-17 0 -30 12.5t-13 30.5t13 31t30 13q18 0 31 -13t13 -31z" />
    <glyph glyph-name="yacute" unicode="&#xfd;" 
d="M284 700l-100 -144h-46l79 144h67zM178 -196q-82 0 -127 50l29 56q39 -45 93 -45q38 0 59.5 29.5t21.5 86.5v92q-17 -33 -45.5 -55t-62.5 -22q-48 0 -69 25t-21 79v383h68v-364q0 -63 46 -63q26 0 49 23t35 55v349h68v-502q0 -84 -37 -130.5t-107 -46.5z" />
    <glyph glyph-name="thorn" unicode="&#xfe;" horiz-adv-x="384" 
d="M215 -12q-63 0 -91 75v-247h-68v851h68v-245q31 73 91 73q66 0 99 -68.5t33 -184.5q0 -115 -33 -184.5t-99 -69.5zM198 49q77 0 77 193q0 192 -77 192q-23 0 -44 -23.5t-30 -56.5v-224q9 -33 30.5 -57t43.5 -24z" />
    <glyph glyph-name="ydieresis" unicode="&#xff;" 
d="M303 603q0 -18 -13 -30.5t-31 -12.5q-17 0 -30 12.5t-13 30.5t13 31t30 13q18 0 31 -13t13 -31zM162 603q0 -18 -13 -30.5t-31 -12.5q-17 0 -30 12.5t-13 30.5t13 31t30 13q18 0 31 -13t13 -31zM178 -196q-82 0 -127 50l29 56q39 -45 93 -45q38 0 59.5 29.5t21.5 86.5v92
q-17 -33 -45.5 -55t-62.5 -22q-48 0 -69 25t-21 79v383h68v-364q0 -63 46 -63q26 0 49 23t35 55v349h68v-502q0 -84 -37 -130.5t-107 -46.5z" />
    <glyph glyph-name="dotlessi" unicode="&#x131;" horiz-adv-x="180" 
d="M124 0h-68v483h68v-483z" />
    <glyph glyph-name="Lslash" unicode="&#x141;" horiz-adv-x="346" 
d="M21 248v66l55 31v322h75v-278l61 35v-66l-61 -35v-256h173v-67h-248v279z" />
    <glyph glyph-name="lslash" unicode="&#x142;" horiz-adv-x="240" 
d="M21 262v56l56 31v318h68v-279l56 32v-56l-56 -32v-230q0 -28 7 -40.5t24 -12.5q20 0 32 17l22 -51q-27 -27 -68 -27q-44 0 -64.5 25.5t-20.5 78.5v201z" />
    <glyph glyph-name="OE" unicode="&#x152;" horiz-adv-x="594" 
d="M551 0h-247v66q-32 -78 -99 -78q-58 0 -95 48t-52 122.5t-15 174.5t15 174t52 122t95 48q67 0 99 -76v66h247v-67h-172v-225h165v-67h-165v-241h172v-67zM304 178v311q-24 120 -87 120q-96 0 -96 -276q0 -277 96 -277q30 0 53 32t34 90z" />
    <glyph glyph-name="oe" unicode="&#x153;" horiz-adv-x="608" 
d="M575 219h-234q0 -80 27 -127t77 -47q47 0 80 59l40 -37q-48 -79 -125 -79q-93 0 -130 110q-36 -110 -119 -110q-78 0 -115.5 72t-37.5 182t37.5 181.5t115.5 71.5q83 0 118 -107q32 107 117 107q77 0 113 -70t36 -183v-23zM341 270h166q0 69 -19 118.5t-64 49.5
q-31 0 -51 -29.5t-26 -64t-6 -74.5zM273 242q0 192 -82 192t-82 -192q0 -194 82 -194t82 194z" />
    <glyph glyph-name="Scaron" unicode="&#x160;" horiz-adv-x="343" 
d="M226 728h-67l-68 144h41l61 -105l57 105h42zM163 -12q-87 0 -143 61l38 60q39 -53 102 -53q37 0 61.5 28.5t24.5 74.5q0 42 -21.5 76t-52 60t-61 54t-52 70t-21.5 95q0 71 43 117.5t110 46.5q73 0 120 -47l-33 -58q-34 37 -85 37q-33 0 -55.5 -25.5t-22.5 -67.5
q0 -36 21.5 -67.5t51.5 -57.5t60.5 -55.5t52 -74t21.5 -99.5q0 -77 -44 -126t-115 -49z" />
    <glyph glyph-name="scaron" unicode="&#x161;" horiz-adv-x="309" 
d="M152 -12q-85 0 -131 61l33 47q39 -52 93 -52q30 0 50.5 19.5t20.5 52.5q0 25 -13.5 46t-33.5 34.5t-44 31t-44 35t-33.5 46.5t-13.5 66q0 52 35.5 86t92.5 34q69 0 115 -54l-32 -46q-30 44 -82 44q-29 0 -46.5 -18t-17.5 -44q0 -24 13.5 -44t33.5 -33.5t44 -31t44 -35.5
t33.5 -48.5t13.5 -67.5q0 -57 -37.5 -93t-93.5 -36zM195 556h-67l-68 144h41l61 -105l57 105h42z" />
    <glyph glyph-name="Ydieresis" unicode="&#x178;" horiz-adv-x="372" 
d="M303 772q0 -18 -13 -30.5t-31 -12.5q-17 0 -30 12.5t-13 30.5t13 31t30 13q18 0 31 -13t13 -31zM162 772q0 -18 -13 -30.5t-31 -12.5q-17 0 -30 12.5t-13 30.5t13 31t30 13q18 0 31 -13t13 -31zM224 0h-76v283l-149 384h81l106 -307l107 307h80l-149 -384v-283z" />
    <glyph glyph-name="Zcaron" unicode="&#x17d;" horiz-adv-x="340" 
d="M205 728h-67l-68 144h41l61 -105l57 105h42zM307 0h-274v66l184 534h-184v67h267v-63l-186 -537h193v-67z" />
    <glyph glyph-name="zcaron" unicode="&#x17e;" horiz-adv-x="303" 
d="M268 0h-234v54l151 369h-151v60h230v-52l-150 -371h154v-60zM184 556h-67l-68 144h41l61 -105l57 105h42z" />
    <glyph glyph-name="florin" unicode="&#x192;" horiz-adv-x="364" 
d="M99 -161h-77l92 417h-46v62h60l56 252q10 48 45 77.5t80 29.5q43 0 65 -25l-30 -56q-10 14 -30 14q-44 0 -57 -56l-52 -236h90v-62h-104z" />
    <glyph glyph-name="circumflex" unicode="&#x2c6;" horiz-adv-x="201" 
d="M201 556h-42l-60 105l-58 -105h-41l65 144h67z" />
    <glyph glyph-name="caron" unicode="&#x2c7;" horiz-adv-x="201" 
d="M135 556h-67l-68 144h41l61 -105l57 105h42z" />
    <glyph glyph-name="breve" unicode="&#x2d8;" horiz-adv-x="238" 
d="M238 624q-44 -60 -119 -60t-119 60l37 28q12 -20 35 -31.5t47 -11.5q56 0 83 43z" />
    <glyph glyph-name="dotaccent" unicode="&#x2d9;" horiz-adv-x="104" 
d="M52 576q-18 0 -31 12.5t-13 31.5q0 18 13 31t31 13t31 -13t13 -31q0 -19 -13 -31.5t-31 -12.5z" />
    <glyph glyph-name="ring" unicode="&#x2da;" horiz-adv-x="165" 
d="M83 555q-35 0 -59 24.5t-24 58.5t24 58.5t59 24.5q34 0 58 -24t24 -59t-24 -59t-58 -24zM83 591q19 0 33 13.5t14 33.5t-14 33.5t-33 13.5t-33 -13.5t-14 -33.5t14 -33.5t33 -13.5z" />
    <glyph glyph-name="ogonek" unicode="&#x2db;" horiz-adv-x="139" 
d="M103 -116l36 -17q-18 -53 -69 -53q-32 0 -51 19.5t-19 56.5q0 75 76 132l31 -22q-65 -44 -65 -108q0 -41 28 -41q26 0 33 33z" />
    <glyph glyph-name="tilde" unicode="&#x2dc;" horiz-adv-x="227" 
d="M153 554q-19 0 -31 15t-17 32.5t-13 32.5t-19 15q-34 0 -34 -89h-39q0 60 18.5 97t54.5 37q19 0 31 -15t17 -32.5t13 -32.5t19 -15q34 0 34 89h40q0 -59 -18.5 -96.5t-55.5 -37.5z" />
    <glyph glyph-name="hungarumlaut" unicode="&#x2dd;" horiz-adv-x="232" 
d="M115 700l-77 -144h-38l56 144h59zM232 700l-78 -144h-38l56 144h60z" />
    <glyph glyph-name="pi" unicode="&#x3c0;" horiz-adv-x="348" 
d="M291 0h-70v438h-95v-438h-70v438h-38v62h312v-62h-39v-438z" />
    <glyph glyph-name="endash" unicode="&#x2013;" horiz-adv-x="460" 
d="M430 212h-400v60h400v-60z" />
    <glyph glyph-name="emdash" unicode="&#x2014;" horiz-adv-x="640" 
d="M610 212h-580v60h580v-60z" />
    <glyph glyph-name="quoteleft" unicode="&#x2018;" horiz-adv-x="228" 
d="M58 531q0 43 22 82.5t56 63.5l35 -28q-24 -17 -42 -43t-20 -50l5 1q4 1 7 1q20 0 33 -14t13 -35t-14.5 -35.5t-36.5 -14.5q-24 0 -41 19.5t-17 52.5z" />
    <glyph glyph-name="quoteright" unicode="&#x2019;" horiz-adv-x="228" 
d="M170 604q0 -42 -22 -81.5t-56 -64.5l-35 29q24 16 42 42.5t20 50.5q-2 -2 -11 -2q-20 0 -33 14t-13 34q0 21 14.5 36t35.5 15q24 0 41 -19.5t17 -53.5z" />
    <glyph glyph-name="quotesinglbase" unicode="&#x201a;" horiz-adv-x="228" 
d="M170 21q0 -43 -22 -82.5t-56 -63.5l-35 28q24 17 42 43t20 50l-5 -1q-4 -1 -6 -1q-20 0 -33 14t-13 35t14.5 35.5t35.5 14.5q24 0 41 -19.5t17 -52.5z" />
    <glyph glyph-name="quotedblleft" unicode="&#x201c;" horiz-adv-x="382" 
d="M58 531q0 43 22 82.5t56 63.5l35 -28q-24 -17 -42 -43t-21 -50l5 1q5 1 7 1q20 0 33 -14t13 -35q0 -20 -14.5 -35t-35.5 -15q-24 0 -41 19.5t-17 52.5zM212 531q0 43 22 82.5t57 63.5l35 -28q-25 -17 -43 -43t-20 -50l5 1q4 1 7 1q20 0 33 -14t13 -35t-14.5 -35.5
t-36.5 -14.5q-24 0 -41 19.5t-17 52.5z" />
    <glyph glyph-name="quotedblright" unicode="&#x201d;" horiz-adv-x="382" 
d="M324 604q0 -43 -22 -82t-56 -64l-35 29q24 16 42.5 42.5t20.5 50.5q-2 -2 -12 -2q-19 0 -32.5 14t-13.5 34q0 21 14.5 36t36.5 15q24 0 40.5 -19.5t16.5 -53.5zM170 604q0 -42 -22 -81.5t-56 -64.5l-35 29q24 16 42 42.5t20 50.5q-2 -2 -11 -2q-20 0 -33 14t-13 34
q0 21 14.5 36t35.5 15q24 0 41 -19.5t17 -53.5z" />
    <glyph glyph-name="quotedblbase" unicode="&#x201e;" horiz-adv-x="382" 
d="M170 21q0 -43 -22 -82.5t-56 -63.5l-35 28q24 17 42 43t20 50l-5 -1q-4 -1 -6 -1q-20 0 -33 14t-13 35t14.5 35.5t35.5 14.5q24 0 41 -19.5t17 -52.5zM324 21q0 -43 -22 -82.5t-56 -63.5l-35 28q25 17 43 43t20 50l-4 -1q-5 -1 -8 -1q-20 0 -33 14t-13 35t15 35.5
t36 14.5q24 0 40.5 -19.5t16.5 -52.5z" />
    <glyph glyph-name="dagger" unicode="&#x2020;" horiz-adv-x="261" 
d="M238 532l-89 4l4 -209h-45l4 209l-89 -4v41l89 -3l-4 107h45l-4 -107l89 3v-41z" />
    <glyph glyph-name="daggerdbl" unicode="&#x2021;" horiz-adv-x="261" 
d="M238 573v-41l-89 4v-215l89 4v-41l-89 3l4 -107h-45l4 107l-89 -3v41l89 -4v215l-89 -4v41l89 -3l-4 107h45l-4 -107z" />
    <glyph glyph-name="bullet" unicode="&#x2022;" horiz-adv-x="358" 
d="M286 242q0 -44 -31 -74.5t-75 -30.5t-75 30.5t-31 74.5t31 75t75 31t75 -31t31 -75z" />
    <glyph glyph-name="ellipsis" unicode="&#x2026;" horiz-adv-x="680" 
d="M165 42q0 -21 -15 -36.5t-37 -15.5q-21 0 -36.5 15.5t-15.5 36.5t15.5 36t36.5 15q22 0 37 -15t15 -36zM392 42q0 -21 -15.5 -36.5t-36.5 -15.5t-36.5 15.5t-15.5 36.5t15.5 36t36.5 15t36.5 -15t15.5 -36zM619 42q0 -21 -15.5 -36.5t-37.5 -15.5q-21 0 -36 15.5
t-15 36.5t15 36t36 15q22 0 37.5 -15t15.5 -36z" />
    <glyph glyph-name="perthousand" unicode="&#x2030;" horiz-adv-x="840" 
d="M270 512q0 -71 -33 -117.5t-87 -46.5q-55 0 -88 46.5t-33 117.5q0 72 33 118.5t88 46.5t87.5 -46.5t32.5 -118.5zM443 667l-275 -667h-40l273 667h42zM541 151q0 -71 -33 -117t-88 -46t-87.5 46t-32.5 117q0 72 33 119t87 47q55 0 88 -47t33 -119zM218 512
q0 51 -18.5 84.5t-49.5 33.5t-50 -33.5t-19 -84.5q0 -50 19 -83t50 -33t49.5 33t18.5 83zM488 151q0 52 -18 85t-50 33q-31 0 -49.5 -33t-18.5 -85q0 -50 18.5 -83t49.5 -33q32 0 50 33t18 83zM811 151q0 -71 -33 -117t-88 -46q-54 0 -87 46t-33 117q0 72 33 119t87 47
q55 0 88 -47t33 -119zM758 151q0 52 -18 85t-50 33q-31 0 -49.5 -33t-18.5 -85q0 -50 18.5 -83t49.5 -33q32 0 50 33t18 83z" />
    <glyph glyph-name="guilsinglleft" unicode="&#x2039;" horiz-adv-x="208" 
d="M178 63h-58l-90 180l90 177h58l-90 -177z" />
    <glyph glyph-name="guilsinglright" unicode="&#x203a;" horiz-adv-x="208" 
d="M178 243l-90 -180h-58l90 180l-90 177h58z" />
    <glyph glyph-name="fraction" unicode="&#x2044;" horiz-adv-x="115" 
d="M215 667l-274 -667h-41l274 667h41z" />
    <glyph glyph-name="Euro" unicode="&#x20ac;" horiz-adv-x="403" 
d="M230 -12q-144 0 -170 250h-44v49h41q-1 15 -1 46q0 32 1 48h-41v49h44q12 115 54 181.5t116 66.5q99 0 138 -128l-62 -24q-13 43 -29.5 63.5t-46.5 20.5q-77 0 -92 -180h119v-49h-122q-1 -16 -1 -48q0 -31 1 -46h122v-49h-120q17 -182 93 -182q33 0 50.5 26.5t27.5 74.5
l63 -23q-34 -146 -141 -146z" />
    <glyph glyph-name="trademark" unicode="&#x2122;" horiz-adv-x="374" 
d="M339 447h-28v182l-55 -182h-8l-55 182v-182h-28v220h43l44 -157l44 157h43v-220zM129 641h-42v-194h-28v194h-42v26h112v-26z" />
    <glyph glyph-name="Omega" unicode="&#x2126;" horiz-adv-x="419" 
d="M45 0v67h79q-89 94 -89 279q0 156 43.5 244t130.5 88q88 0 131.5 -88t43.5 -244q0 -93 -24.5 -165t-64.5 -114h79v-67h-132v67q24 19 43.5 89t19.5 177q0 276 -96 276t-96 -276q0 -107 20 -177.5t44 -88.5v-67h-132z" />
    <glyph glyph-name="partialdiff" unicode="&#x2202;" horiz-adv-x="382" 
d="M191 -12q-78 0 -115.5 70t-37.5 177q0 106 34.5 176t103.5 70q57 0 83 -61q-29 135 -95 231l60 29q120 -193 120 -438q0 -111 -37.5 -182.5t-115.5 -71.5zM191 49q82 0 82 186t-82 186q-44 0 -63 -53.5t-19 -132.5q0 -186 82 -186z" />
    <glyph glyph-name="Delta" unicode="&#x2206;" horiz-adv-x="393" 
d="M387 0h-380l146 667h87zM298 67l-101 510l-102 -510h203z" />
    <glyph glyph-name="product" unicode="&#x220f;" horiz-adv-x="426" 
d="M354 -90h-76v690h-132v-690h-75v690h-53v67h390v-67h-54v-690z" />
    <glyph glyph-name="summation" unicode="&#x2211;" horiz-adv-x="326" 
d="M120 600l115 -301l-117 -322h175v-67h-251v70l115 319l-115 301v67h251v-67h-173z" />
    <glyph glyph-name="minus" unicode="&#x2212;" 
d="M349 310h-320v49h320v-49z" />
    <glyph glyph-name="radical" unicode="&#x221a;" horiz-adv-x="465" 
d="M289 0h-55l-71 318l-112 -24l-9 48l156 33l65 -304l135 596h49z" />
    <glyph glyph-name="infinity" unicode="&#x221e;" horiz-adv-x="479" 
d="M137 172q-53 0 -80.5 48.5t-27.5 114.5t27.5 115t80.5 49q67 0 102 -108q37 108 103 108q53 0 80.5 -48.5t27.5 -115.5t-27.5 -115t-80.5 -48q-34 0 -60.5 30t-42.5 77q-35 -107 -102 -107zM334 221q32 0 49.5 31.5t17.5 82.5t-17.5 83t-49.5 32q-45 0 -72 -115
q27 -114 72 -114zM145 221q44 0 73 114q-29 115 -73 115q-31 0 -49 -32t-18 -83t17.5 -82.5t49.5 -31.5z" />
    <glyph glyph-name="integral" unicode="&#x222b;" horiz-adv-x="234" 
d="M47 -100h-30v51h30q18 0 30.5 15t12.5 38v659q0 46 29 75.5t68 29.5h30v-51h-30q-18 0 -30.5 -15.5t-12.5 -38.5v-659q0 -46 -29 -75t-68 -29z" />
    <glyph glyph-name="approxequal" unicode="&#x2248;" 
d="M29 212v53q35 -19 80 -19q33 0 76.5 16.5t83.5 16.5q43 0 80 -15v-52q-36 18 -80 18q-34 0 -77 -16.5t-83 -16.5q-42 0 -80 15zM29 404v52q36 -18 80 -18q33 0 76.5 16.5t83.5 16.5q43 0 80 -15v-53q-35 19 -80 19q-34 0 -77 -16.5t-83 -16.5q-42 0 -80 15z" />
    <glyph glyph-name="notequal" unicode="&#x2260;" 
d="M110 93h-41l49 119h-89v49h109l60 146h-169v49h189l49 118h42l-49 -118h89v-49h-109l-61 -146h170v-49h-190z" />
    <glyph glyph-name="lessequal" unicode="&#x2264;" 
d="M349 161l-320 149v49l320 149v-59l-259 -115l259 -114v-59zM349 45h-320v49h320v-49z" />
    <glyph glyph-name="greaterequal" unicode="&#x2265;" 
d="M349 310l-320 -149v59l259 114l-259 115v59l320 -149v-49zM349 45h-320v49h320v-49z" />
    <glyph glyph-name="lozenge" unicode="&#x25ca;" horiz-adv-x="375" 
d="M198 0h-21l-158 334l158 333h21l158 -333zM188 41l132 293l-133 292l-132 -292z" />
    <glyph glyph-name="apple" unicode="&#xf8ff;" horiz-adv-x="667" 
d="M227 154v75h-74q-31 0 -52.5 -22t-21.5 -53q0 -32 21.5 -54t52.5 -22t52.5 22t21.5 54zM227 438v76q0 32 -21 53.5t-52 21.5q-32 0 -53.5 -21.5t-21.5 -53.5t22 -54t53 -22h73zM265 265h137v137h-137v-137zM588 154q0 31 -21.5 53t-52.5 22h-74v-75q0 -32 21.5 -54
t52.5 -22t52.5 22t21.5 54zM588 514q0 31 -21.5 53t-52.5 22t-52.5 -21.5t-21.5 -53.5v-76h74q31 0 52.5 22t21.5 54zM625 154q0 -46 -32.5 -79t-78.5 -33t-79 33t-33 79v75h-137v-75q0 -46 -33 -79t-79 -33t-78.5 33t-32.5 79t32.5 78.5t78.5 32.5h74v137h-73q-46 0 -79 33
t-33 79t33 78.5t79 32.5t78.5 -32.5t32.5 -78.5v-76h137v76q0 46 33 78.5t79 32.5t78.5 -32.5t32.5 -78.5t-32.5 -79t-78.5 -33h-74v-137h74q46 0 78.5 -32.5t32.5 -78.5z" />
    </font>
</defs>
</svg>
